<svg xmlns="http://www.w3.org/2000/svg"
shape-rendering="geometricPrecision"
width="4000" height="4000" viewBox="0 0 1024 1024"><rect width="100%" height="100%" fill="#FCFCFC" />
  <metadata>null</metadata>

<path d="
M 83.457 361.12
C 84.184 356.184 83.959 350.968 84.392 345.98
C 85.147 337.276 86.449 328.672 87.837 320.044
C 92.472 291.235 101.578 262.942 113.929 236.536
C 152.844 153.338 227.732 86.606 315.922 59.881
C 348.121 50.123 381.383 45.265 415.011 45.636
C 448.874 46.01 482.221 51.826 514.123 63.246
C 522.463 66.231 530.612 69.602 538.651 73.321
C 542.034 74.885 546.518 76.395 549.412 78.741
C 548.636 79.865 547.046 80.601 545.977 81.425
C 544.451 82.6 542.972 83.854 541.462 85.051
C 535.365 89.886 529.179 94.836 523.512 100.173
C 520.892 102.641 518.202 105.058 515.689 107.634
C 514.605 108.745 513.445 110.778 511.997 111.36
C 509.778 111.007 507.362 109.86 505.261 109.057
C 501.607 107.661 497.934 106.293 494.213 105.08
C 482.248 101.178 470.155 98.055 457.773 95.786
C 414.543 87.866 368.971 91.957 327.129 104.843
C 294.167 114.995 262.708 132.469 236.044 154.238
C 210.554 175.049 187.286 199.942 170.596 228.474
C 155.363 254.516 142.959 282.431 136.425 311.994
C 124.564 365.655 128.591 423.15 148.443 474.447
C 169.062 527.726 206.747 573.676 253.404 606.252
C 280.285 625.02 311.124 639.36 342.949 647.358
C 369.582 654.05 397.011 657.643 424.498 656.43
C 432.585 656.074 440.851 655.725 448.867 654.496
C 487.173 648.627 523.488 636.281 556.63 615.998
C 565.643 610.482 574.358 604.242 582.681 597.734
C 586.557 594.704 590.125 591.179 594.067 588.263
C 594.976 588.608 595.641 590.048 596.179 590.835
C 597.589 592.896 599.141 594.865 600.577 596.909
C 605.738 604.256 611.256 611.326 616.131 618.872
C 617.272 620.638 618.575 622.313 619.865 623.971
C 620.239 624.452 621.306 625.258 621.382 625.835
C 618.09 629.741 613.016 632.831 608.977 635.934
C 602.877 640.619 596.822 645.317 590.331 649.462
C 560.921 668.246 529.634 682.205 496.082 691.706
C 469.102 699.346 440.903 702.739 412.895 702.693
C 356.51 702.6 300.182 687.184 251.154 659.442
C 167.983 612.381 106.684 528.128 89.141 434.129
C 84.678 410.218 82.237 385.463 83.457 361.12 Z"
opacity="1" fill="rgb(103,189,216)" fill-rule="evenodd" />
<path d="
M 147.926 370.093
C 148.255 367.202 148.967 364.408 150.58 361.954
C 157.135 351.974 171.408 350.446 179.904 358.93
C 182.046 361.069 183.61 363.947 184.568 366.801
C 185.386 369.237 185.558 371.87 185.277 374.415
C 183.249 392.811 154.86 396.101 148.776 378.613
C 147.844 375.934 147.605 372.905 147.926 370.093 Z"
opacity="1" fill="rgb(97,180,220)" fill-rule="evenodd" />
<path d="
M 236.838 836.314
C 243.956 836.028 251.53 835.662 258.629 836.227
C 272.269 853.088 286.409 869.533 300.267 886.215
C 308.389 895.992 316.195 906.167 324.599 915.689
C 324.812 915.567 324.706 914.866 324.711 914.625
C 324.732 913.417 324.757 912.213 324.761 911.004
C 324.777 906.335 324.846 901.666 324.881 896.997
C 324.978 883.997 324.872 870.997 324.88 857.997
C 324.884 850.811 325.425 843.404 324.847 836.243
C 333.197 836.387 341.819 836.679 350.154 836.165
C 350.977 844.949 350.253 854.177 350.255 863.006
C 350.259 880.339 350.268 897.672 350.285 915.005
C 350.295 925.171 350.364 935.337 350.359 945.503
C 350.358 948.669 350.34 951.835 350.35 955.002
C 350.354 956.302 350.638 957.918 350.374 959.182
C 345.583 959.208 340.788 959.215 335.995 959.212
C 333.683 959.211 331.035 959.591 328.777 959.101
C 327.184 957.743 325.871 955.723 324.571 954.082
C 322.103 950.968 319.565 947.852 316.956 944.856
C 305.643 931.864 294.839 918.436 283.568 905.406
C 278.713 899.794 273.754 894.205 269.118 888.415
C 267.516 886.413 265.903 884.391 264.239 882.444
C 263.727 881.845 263.336 881.23 262.885 880.586
C 262.601 880.18 261.928 878.991 261.888 879.485
C 261.642 882.47 262.332 885.941 262.318 889
C 262.274 899.172 262.38 909.341 262.392 919.512
C 262.402 928.346 262.418 937.18 262.437 946.014
C 262.446 950.274 261.978 954.86 262.505 959.083
C 261.943 959.372 260.942 959.181 260.336 959.169
C 258.726 959.139 257.114 959.121 255.504 959.119
C 249.399 959.113 243.259 959.328 237.16 959.14
C 236.27 918.212 237.635 877.243 236.838 836.314 Z"
opacity="1" fill="rgb(31,47,86)" fill-rule="evenodd" />
<path d="
M 295.435 453.081
C 297.988 443.185 308.521 438.228 315.654 431.826
C 325.131 423.32 335.324 415.598 345.006 407.328
C 355.055 398.743 365.025 389.355 376.163 382.178
C 376.375 381.217 375.393 379.334 375.185 378.324
C 374.667 375.807 374.511 373.199 374.663 370.637
C 375.377 358.573 382.777 346.573 393.597 341.3
C 394.262 331.824 393.563 322.016 393.628 312.502
C 393.776 290.835 393.709 269.168 393.725 247.5
C 393.73 240.667 393.731 233.834 393.711 227.001
C 393.7 223.181 393.36 219.24 393.814 215.438
C 394.078 213.228 395.019 211.07 396.158 209.175
C 397.182 207.469 398.434 205.718 399.974 204.434
C 408.803 197.071 422.023 201.732 426.652 211.518
C 428.254 214.906 427.743 218.849 427.768 222.501
C 427.81 229.001 427.85 235.501 427.86 242
C 427.895 265.668 427.755 289.335 427.743 313.003
C 427.74 319.67 427.746 326.336 427.766 333.003
C 427.771 334.911 427.782 336.819 427.793 338.727
C 427.797 339.543 427.551 340.667 427.908 341.401
C 431.948 343.24 435.503 347.07 438.228 350.484
C 440.6 353.456 442.187 356.835 443.451 360.4
C 445.527 366.253 446.508 372.684 445.512 378.864
C 442.933 394.865 428.665 407.323 412.574 407.941
C 408.298 408.105 404.499 407.481 400.514 405.915
C 398.29 406.527 395.794 409.719 394.073 411.279
C 389.125 415.768 383.946 420.002 378.868 424.34
C 365.644 435.637 352.275 446.739 338.951 457.915
C 333.377 462.59 328.012 468.238 321.958 472.255
C 313.792 477.671 302.102 474.785 297.152 466.361
C 294.868 462.475 294.558 457.43 295.435 453.081 Z"
opacity="1" fill="rgb(116,195,216)" fill-rule="evenodd" />
<path d="
M 374.466 910.613
C 375.664 900.265 377.664 891.111 383.947 882.489
C 396.986 864.598 424.479 859.894 444.385 867.397
C 460.821 873.591 471.193 889.544 472.326 906.741
C 472.521 909.695 472.571 912.471 472.426 915.432
C 472.354 916.9 472.453 918.712 471.774 920.054
C 457.057 920.588 442.232 920.122 427.501 920.132
C 421.168 920.137 414.834 920.131 408.501 920.168
C 405.448 920.186 402.283 920.467 399.245 920.229
C 399.929 923.175 400.597 925.874 402.231 928.468
C 410.133 941.011 427.232 942.989 440.31 938.647
C 443.156 937.702 446.134 936.114 448.494 934.265
C 449.885 933.176 451.002 931.667 452.569 930.825
C 455.745 934.695 459.496 938.115 462.962 941.718
C 463.756 942.544 464.559 943.36 465.358 944.181
C 465.553 944.38 466.395 945.045 466.335 945.33
C 464.814 947.864 461.796 949.896 459.457 951.616
C 452.91 956.43 445.048 958.738 437.102 959.993
C 412.416 963.89 383.507 952.38 376.325 926.494
C 374.912 921.401 374.232 915.898 374.466 910.613 Z
M 399.445 902.574
C 399.338 903.214 398.912 904.496 399.395 904.932
C 415.749 903.924 432.35 905.184 448.726 905.152
C 447.676 899.749 446.296 894.948 442.429 890.799
C 434.039 881.799 417.698 881.599 408.291 889.097
C 403.673 892.778 401.362 897.132 399.445 902.574 Z"
opacity="1" fill="rgb(29,47,87)" fill-rule="evenodd" />
<path d="
M 392.928 124.088
C 394.707 112.458 408.25 106.898 418.449 111.421
C 426.037 114.787 429.915 123.976 428.643 131.914
C 427.054 141.834 415.463 149.008 405.777 145.703
C 396.442 142.519 391.454 133.726 392.928 124.088 Z"
opacity="1" fill="rgb(140,216,208)" fill-rule="evenodd" />
<path d="
M 393.46 616.585
C 393.947 614.114 394.984 611.769 396.41 609.693
C 397.754 607.737 399.561 606.007 401.536 604.698
C 404.03 603.046 406.558 602.387 409.514 602.248
C 412.33 602.116 415.271 602.182 417.905 603.298
C 425.649 606.578 430.516 615.572 428.946 623.885
C 428.467 626.422 427.562 628.708 426.072 630.819
C 424.64 632.848 422.723 634.649 420.63 635.992
C 407.359 644.508 390.543 631.403 393.46 616.585 Z"
opacity="1" fill="rgb(86,176,228)" fill-rule="evenodd" />
<path d="
M 464.454 279.107
C 464.867 276.493 464.747 273.753 464.943 271.111
C 465.305 266.231 465.795 261.333 466.363 256.475
C 467.931 243.061 470.999 229.411 475.116 216.55
C 486.424 181.226 505.56 148.905 531.203 122.094
C 544.26 108.442 559.504 96.616 575.424 86.507
C 596.678 73.011 620.785 62.985 645.236 57.104
C 677.342 49.382 710.853 47.956 743.43 53.52
C 771.999 58.4 800.538 68.738 825.283 83.899
C 886.335 121.306 928.805 185.345 938.333 256.459
C 942.28 285.917 940.077 317.491 930.878 345.814
C 922.341 372.093 908.241 396.348 894.862 420.38
C 883.995 439.899 871.992 458.855 859.695 477.5
C 845.053 499.701 830.727 522.059 815.573 543.922
C 789.179 582.001 762.368 619.76 735.188 657.281
C 727.511 667.879 719.921 678.536 711.962 688.924
C 709.971 691.523 708.005 694.149 706.069 696.788
C 704.98 698.273 703.622 700.435 702.011 701.367
C 699.616 700.284 697.56 696.121 696.134 694.009
C 692.324 688.369 688.087 683.015 683.992 677.582
C 671.943 661.593 660.551 645.104 648.74 628.94
C 644.033 622.497 639.774 615.712 634.961 609.348
C 625.861 597.317 617.81 584.534 608.945 572.339
C 589.363 545.4 570.852 517.655 552.706 489.733
C 540.117 470.363 527.612 450.946 515.734 431.131
C 506.537 415.791 497.588 400.229 489.747 384.144
C 484.648 373.684 479.487 363.226 475.637 352.222
C 467.487 328.929 463.37 303.8 464.454 279.107 Z
M 587.463 279.618
C 586.616 294.98 588.571 310.549 593.838 325.038
C 598.651 338.279 605.998 350.356 615.073 361.099
C 622.402 369.776 631.388 377.313 640.945 383.408
C 678.869 407.598 728.684 407.076 766.109 381.99
C 781.992 371.343 794.763 356.8 803.865 340.06
C 812.455 324.262 816.609 306.598 817.525 288.734
C 818.218 275.218 815.695 261.114 811.224 248.403
C 803.278 225.813 788.23 204.936 768.411 191.219
C 736.647 169.235 694.577 164.218 658.864 179.186
C 646.71 184.28 635.352 191.385 625.598 200.259
C 615.435 209.504 606.864 220.081 600.541 232.308
C 592.885 247.11 588.382 262.95 587.463 279.618 Z
M 662.926 568.111
C 662.308 574.057 662.874 580.568 664.855 586.229
C 666.575 591.144 669.112 595.758 672.688 599.578
C 678.564 605.853 686.609 610.546 695.139 611.989
C 711.981 614.84 729.645 606.348 737.498 591.168
C 739.798 586.722 741.184 581.959 741.693 576.983
C 742.255 571.499 741.573 565.924 739.826 560.702
C 738.304 556.151 736.097 552.017 733.029 548.322
C 727.789 542.01 720.449 537.055 712.442 535.018
C 695.266 530.648 676.607 538.438 667.647 553.613
C 665.017 558.065 663.461 562.963 662.926 568.111 Z"
opacity="1" fill="rgb(123,202,149)" fill-rule="evenodd" />
<path d="
M 479.864 958.503
C 483.7 952.371 488.489 946.814 492.777 941.003
C 496.973 935.317 501.161 929.616 505.44 923.992
C 507.724 920.991 510.028 917.993 512.168 914.884
C 512.948 913.751 514.545 912.491 514.842 911.129
C 511.51 905.94 507.396 901.035 503.735 896.059
C 496.293 885.945 488.877 875.825 481.541 865.638
C 487.9 864.963 494.673 865.445 501.079 865.485
C 503.485 865.5 507.07 864.736 509.298 865.681
C 510.594 868.179 512.592 870.445 514.232 872.733
C 517.825 877.748 521.357 882.817 525.111 887.715
C 526.401 889.398 527.617 891.147 528.837 892.881
C 529.196 893.391 529.857 894.7 530.392 894.928
C 532.244 892.963 533.611 890.304 535.227 888.129
C 540.713 880.742 545.694 872.881 551.423 865.689
C 556.947 865.788 562.486 865.624 568.012 865.612
C 571.221 865.605 574.766 865.977 577.931 865.445
C 575.796 869.458 572.303 873.16 569.645 876.87
C 561.521 888.205 552.586 899.069 544.798 910.63
C 544.924 911.678 546.128 912.769 546.752 913.599
C 548.509 915.938 550.321 918.238 552.005 920.633
C 558.427 929.768 565.493 938.445 571.806 947.659
C 573.818 950.596 575.85 953.522 577.928 956.413
C 578.169 956.748 579.989 958.973 579.83 959.122
C 573.287 959.569 566.563 959.175 560.002 959.145
C 557.753 959.134 553.784 959.909 551.805 958.845
C 545.861 951.197 540.377 942.942 534.871 934.963
C 533.595 933.113 532.208 931.337 530.937 929.485
C 530.661 929.082 529.895 927.722 529.524 927.786
C 527.558 931.741 523.84 935.248 521.28 938.876
C 516.591 945.521 512.148 952.566 507.126 958.952
C 506.447 959.419 505.314 959.204 504.52 959.199
C 502.846 959.189 501.174 959.175 499.5 959.177
C 492.902 959.186 486.232 959.479 479.644 959.179
C 479.717 958.953 479.79 958.728 479.864 958.503 Z"
opacity="1" fill="rgb(29,46,86)" fill-rule="evenodd" />
<path d="
M 592.613 865.709
C 600.672 865.169 609.098 865.255 617.168 865.637
C 617.839 866.714 617.392 868.937 617.397 870.193
C 617.412 874.131 617.433 878.069 617.452 882.008
C 617.499 891.566 617.638 901.119 617.616 910.677
C 617.601 917.463 617.342 924.813 620.798 930.916
C 628.751 944.961 650.735 940.662 657.781 928.153
C 661.727 921.145 661.254 912.7 661.326 904.925
C 661.445 891.982 661.659 879.015 661.494 866.078
C 662.511 864.769 666.548 865.333 668.149 865.491
C 674.064 866.073 680.44 864.424 686.276 865.575
C 685.642 887.661 686.399 909.903 686.418 932.007
C 686.423 938.226 686.427 944.447 686.463 950.666
C 686.478 953.178 687.265 956.861 686.416 959.23
C 681.618 959.358 676.797 959.212 671.996 959.214
C 669.021 959.216 665.978 959.484 663.014 959.231
C 662.916 955.02 663.29 950.728 663.016 946.538
C 661.172 947.825 659.813 950.26 658.074 951.791
C 654.195 955.206 649.592 957.808 644.625 959.248
C 639.324 960.784 633.784 961.092 628.291 960.808
C 623.934 960.583 619.713 959.679 615.578 958.295
C 612.836 957.377 610.365 955.932 607.968 954.347
C 590.643 942.887 592.704 920.088 592.695 902.004
C 592.693 897.672 592.687 893.339 592.664 889.007
C 592.622 881.243 592.487 873.471 592.613 865.709 Z"
opacity="1" fill="rgb(31,47,87)" fill-rule="evenodd" />
<path d="
M 706.378 950.02
C 709.351 944.635 711.434 938.634 713.817 932.973
C 717.235 934.401 720.242 936.702 723.73 938.108
C 732.476 941.633 743.086 943.137 752.447 941.745
C 757.542 940.987 764.418 939.365 764.475 933.013
C 764.483 932.12 764.388 931.191 764.025 930.364
C 763.597 929.39 763.085 928.433 762.301 927.697
C 758.35 923.986 751.713 923.546 746.621 922.693
C 732.906 920.394 714.875 918.076 709.563 902.91
C 704.925 889.667 712.164 875.351 724.331 869.344
C 737.588 862.799 754.597 862.941 768.802 866.045
C 773.807 867.138 779.554 868.334 783.839 871.293
C 783.872 872.621 782.758 874.386 782.267 875.634
C 781.029 878.784 779.906 881.989 778.569 885.099
C 778.035 886.339 777.854 888.398 776.932 889.369
C 766.101 884.363 753.564 881.488 741.67 884.226
C 736.682 885.375 731.576 888.323 731.912 894.092
C 731.995 895.52 732.456 896.84 733.454 897.888
C 737.246 901.87 743.771 902.338 748.868 903.322
C 762.253 905.906 780.177 906.958 786.156 921.569
C 789.859 930.616 787.407 942.015 780.829 949.088
C 777.257 952.929 772.512 955.566 767.646 957.382
C 751.645 963.354 731.578 961.769 715.804 955.781
C 712.407 954.492 709.439 952.7 706.249 951.051
C 706.149 950.352 706.111 950.696 706.378 950.02 Z"
opacity="1" fill="rgb(30,47,86)" fill-rule="evenodd" />

</svg>